<svg xmlns="http://www.w3.org/2000/svg" version="1.1" xmlns:xlink="http://www.w3.org/1999/xlink" xmlns:svgjs="http://svgjs.com/svgjs" height="114.84537963867187" width="340.5679412841797"><defs id="SvgjsDefs1125"></defs><g id="SvgjsG1126" rel="mainfill" name="main_text" xmlns:name="main_text" transform="translate(133.0279491901398,-165.3423095703125)" fill="#000000"><path d="M8.86 222.81L8.86 219.36L15.71 212.42L26.05 212.42L26.05 222.81ZM8.86 240L8.86 229.71L26.05 229.71L26.05 240L32.90 240L32.90 205.53L12.26 205.53L1.97 215.92L1.97 240ZM54.52 233.11L51.07 233.11L44.23 226.26L44.23 205.53L37.33 205.53L37.33 229.71L47.62 240L57.97 240L68.26 229.71L68.26 205.53L61.41 205.53L61.41 226.26ZM79.09 222.81L79.09 219.36L85.94 212.42L96.28 212.42L96.28 222.81ZM79.09 240L79.09 229.71L96.28 229.71L96.28 240L103.13 240L103.13 205.53L82.49 205.53L72.20 215.92L72.20 240ZM108.05 205.53L108.05 240L137.31 240L137.31 233.11L114.95 233.11L114.95 205.53ZM147.65 233.11L147.65 212.42L164.84 212.42L164.84 233.11ZM168.29 240L171.68 236.60L171.68 209.02L168.29 205.53L144.15 205.53L140.76 209.02L140.76 236.60L144.15 240ZM207.54 240L207.54 205.53L200.69 205.53L200.69 228.48L183.50 205.53L176.61 205.53L176.61 240L183.50 240L183.50 217.00L200.69 240Z" fill="#000000" style="fill: rgb(0, 0, 0);"></path></g><g id="SvgjsG1127" rel="mainfill" name="symbol" xmlns:name="symbol_mainfill" transform="translate(-0.0003925323486186016,0) scale(1.2)" fill="#4C4C4C"><path fill="#4C4C4C" d="M35.714,35.682c3.445-8.742,9.304-16.163,16.678-21.562C51.262,9.494,50.838,4.73,51.175,0c-1.895,1.077-3.739,2.301-5.497,3.677c-1.659,1.293-3.247,2.722-4.747,4.275c-1.38,1.425-2.634,2.933-3.792,4.485c-4.721,6.335-7.535,13.61-8.536,21.078C31.012,34.04,33.378,34.754,35.714,35.682z" style="fill: rgb(76, 76, 76);"></path><path fill="#4C4C4C" d="M93.213,68.966c-6.738,1.011-17.5,1.354-27.636-6.092c-0.522-0.387-1.053-0.811-1.59-1.263c7.214-6.311,12.436-14.838,14.541-24.549c0.109-0.625,0.226-1.247,0.359-1.863c2.181-10.049,7.674-18.864,15.286-25.231c-2.093-0.619-4.253-1.091-6.461-1.402c-2.084-0.294-4.211-0.445-6.377-0.445c-1.987,0-3.937,0.144-5.857,0.391c-17.926,2.301-32.583,15.034-37.703,31.915c-7.024-3.453-15.423-5.432-25.739-4.077C-1.343,38.104,0.041,51.192,0.041,51.192s4.839-2.521,10.396,0.07c5.206,2.429,6.509,7.673,6.509,7.673c3.393,20.645,21.342,29.73,34.62,29.73c12.367,0,20.315-6.489,20.315-6.489l4.204,9.485c0,0,1.765,6.972,10.773,2.606c8.743-4.234,13.201-13.61,13.14-21.352C99.965,69.378,97.841,68.269,93.213,68.966z" style="fill: rgb(76, 76, 76);"></path></g></svg>